{"glyphs":{"0":{"ha":780,"x_min":68,"x_max":712,"o":"m 712 271 q 441 0 712 0 l 339 0 q 68 271 68 0 l 68 678 q 339 949 68 949 l 441 949 q 712 678 712 949 l 712 271 m 509 468 l 271 271 q 339 203 271 203 l 441 203 q 509 271 509 203 l 509 468 m 271 481 l 509 678 q 441 746 509 746 l 339 746 q 271 678 271 746 l 271 481 z "},"1":{"ha":475,"x_min":68,"x_max":407,"o":"m 203 746 l 68 746 l 68 949 l 407 949 l 407 0 l 203 0 l 203 746 z "},"2":{"ha":780,"x_min":68,"x_max":712,"o":"m 68 0 l 68 305 q 339 576 68 576 l 441 576 q 509 644 509 576 l 509 678 q 441 746 509 746 l 68 746 l 68 949 l 441 949 q 712 678 712 949 l 712 644 q 441 373 712 373 l 339 373 q 271 305 271 373 l 271 203 l 712 203 l 712 0 l 68 0 z "},"3":{"ha":746,"x_min":68,"x_max":678,"o":"m 68 576 l 407 576 q 475 644 475 576 l 475 678 q 407 746 475 746 l 68 746 l 68 949 l 407 949 q 678 678 678 949 q 563 475 678 495 q 678 271 678 454 q 407 0 678 0 l 68 0 l 68 203 l 407 203 q 475 271 475 203 l 475 305 q 407 373 475 373 l 68 373 l 68 576 z "},"4":{"ha":814,"x_min":68,"x_max":746,"o":"m 197 949 l 407 949 l 278 475 l 543 475 l 543 949 l 746 949 l 746 0 l 543 0 l 543 271 l 68 271 l 68 475 l 197 949 z "},"5":{"ha":780,"x_min":68,"x_max":712,"o":"m 68 0 l 68 203 l 441 203 q 509 271 509 203 l 509 305 q 441 373 509 373 l 68 373 l 68 949 l 712 949 l 712 746 l 271 746 l 271 576 l 441 576 q 712 305 712 576 l 712 271 q 441 0 712 0 l 68 0 z "},"6":{"ha":814,"x_min":68,"x_max":746,"o":"m 271 576 l 475 576 q 746 305 746 576 l 746 271 q 475 0 746 0 l 339 0 q 68 271 68 0 l 68 610 q 407 949 68 949 l 678 949 l 678 746 l 407 746 q 271 610 271 746 l 271 576 m 271 373 l 271 271 q 339 203 271 203 l 475 203 q 543 271 543 203 l 543 305 q 475 373 543 373 l 271 373 z "},"7":{"ha":814,"x_min":68,"x_max":746,"o":"m 746 949 l 746 746 l 434 0 l 203 0 l 515 746 l 68 746 l 68 949 l 746 949 z "},"8":{"ha":814,"x_min":68,"x_max":746,"o":"m 68 678 q 339 949 68 949 l 475 949 q 746 678 746 949 q 631 475 746 495 q 746 271 746 454 q 475 0 746 0 l 339 0 q 68 271 68 0 q 183 475 68 454 q 68 678 68 495 m 475 576 q 543 644 543 576 l 543 678 q 475 746 543 746 l 339 746 q 271 678 271 746 l 271 644 q 339 576 271 576 l 475 576 m 339 373 q 271 305 271 373 l 271 271 q 339 203 271 203 l 475 203 q 543 271 543 203 l 543 305 q 475 373 543 373 l 339 373 z "},"9":{"ha":814,"x_min":68,"x_max":746,"o":"m 543 373 l 339 373 q 68 644 68 373 l 68 678 q 339 949 68 949 l 475 949 q 746 678 746 949 l 746 339 q 407 0 746 0 l 136 0 l 136 203 l 407 203 q 543 339 543 203 l 543 373 m 543 576 l 543 678 q 475 746 543 746 l 339 746 q 271 678 271 746 l 271 644 q 339 576 271 576 l 543 576 z "}," ":{"ha":271,"x_min":0,"x_max":0,"o":""},"!":{"ha":339,"x_min":68,"x_max":271,"o":"m 68 271 l 68 949 l 271 949 l 271 271 l 68 271 m 68 0 l 68 203 l 271 203 l 271 0 l 68 0 z "},"\"":{"ha":678,"x_min":68,"x_max":610,"o":"m 339 949 l 271 746 l 68 746 l 136 949 l 339 949 m 610 949 l 543 746 l 339 746 l 407 949 l 610 949 z "},"#":{"ha":1017,"x_min":68,"x_max":949,"o":"m 315 712 l 387 949 l 590 949 l 519 712 l 654 712 l 726 949 l 929 949 l 858 712 l 949 712 l 949 543 l 804 543 l 763 407 l 882 407 l 882 237 l 715 237 l 644 0 l 441 0 l 512 237 l 376 237 l 305 0 l 102 0 l 173 237 l 68 237 l 68 407 l 227 407 l 268 543 l 136 543 l 136 712 l 315 712 m 431 407 l 559 407 l 600 543 l 471 543 l 431 407 z "},"$":{"ha":814,"x_min":68,"x_max":746,"o":"m 475 0 l 475 -136 l 339 -136 l 339 0 l 68 0 l 68 203 l 339 203 l 339 373 q 68 658 68 373 q 339 949 68 949 l 339 1085 l 475 1085 l 475 949 l 746 949 l 746 746 l 475 746 l 475 576 q 746 285 746 576 q 475 0 746 0 m 271 658 q 339 576 271 576 l 339 746 q 271 658 271 746 m 475 373 l 475 203 q 543 285 543 203 q 475 373 543 373 z "},"%":{"ha":1289,"x_min":68,"x_max":1221,"o":"m 271 407 q 68 610 68 407 l 68 746 q 271 949 68 949 l 339 949 q 543 746 543 949 l 543 610 q 339 407 543 407 l 271 407 m 254 624 q 309 570 254 570 q 356 624 356 570 l 356 732 q 309 787 356 787 q 254 732 254 787 l 254 624 m 339 0 l 739 949 l 949 949 l 549 0 l 339 0 m 949 0 q 746 203 746 0 l 746 339 q 949 543 746 543 l 1017 543 q 1221 339 1221 543 l 1221 203 q 1017 0 1221 0 l 949 0 m 932 217 q 987 163 932 163 q 1034 217 1034 163 l 1034 326 q 987 380 1034 380 q 932 326 932 380 l 932 217 z "},"&":{"ha":882,"x_min":68,"x_max":814,"o":"m 339 0 q 68 271 68 0 q 183 475 68 454 q 68 678 68 495 q 339 949 68 949 l 678 949 l 678 746 l 339 746 q 271 678 271 746 l 271 644 q 339 576 271 576 l 543 576 l 543 644 l 746 644 l 746 576 l 814 576 l 814 373 l 746 373 l 746 0 l 339 0 m 271 271 q 339 203 271 203 l 543 203 l 543 373 l 339 373 q 271 305 271 373 l 271 271 z "},"'":{"ha":407,"x_min":68,"x_max":339,"o":"m 339 949 l 271 746 l 68 746 l 136 949 l 339 949 z "},"(":{"ha":543,"x_min":68,"x_max":475,"o":"m 258 -136 q 68 475 68 136 q 258 1085 68 814 l 475 1085 q 271 475 271 814 q 475 -136 271 136 l 258 -136 z "},")":{"ha":543,"x_min":68,"x_max":475,"o":"m 68 -136 q 271 475 271 136 q 68 1085 271 814 l 285 1085 q 475 475 475 814 q 285 -136 475 136 l 68 -136 z "},"*":{"ha":517,"x_min":68,"x_max":449,"o":"m 113 628 l 172 736 l 68 760 l 90 842 l 204 835 l 204 949 l 313 949 l 306 835 l 427 842 l 449 760 l 345 736 l 404 628 l 330 581 l 258 673 l 186 581 l 113 628 z "},"+":{"ha":678,"x_min":68,"x_max":610,"o":"m 237 576 l 237 746 l 441 746 l 441 576 l 610 576 l 610 373 l 441 373 l 441 203 l 237 203 l 237 373 l 68 373 l 68 576 l 237 576 z "},",":{"ha":407,"x_min":68,"x_max":339,"o":"m 339 136 l 271 -68 l 68 -68 l 136 136 l 339 136 z "},"-":{"ha":543,"x_min":68,"x_max":475,"o":"m 475 576 l 475 373 l 68 373 l 68 576 l 475 576 z "},".":{"ha":339,"x_min":68,"x_max":271,"o":"m 68 0 l 68 203 l 271 203 l 271 0 l 68 0 z "},"/":{"ha":692,"x_min":68,"x_max":624,"o":"m 271 -136 l 68 -136 l 420 1085 l 624 1085 l 271 -136 z "},":":{"ha":339,"x_min":68,"x_max":271,"o":"m 68 0 l 68 203 l 271 203 l 271 0 l 68 0 m 68 475 l 68 678 l 271 678 l 271 475 l 68 475 z "},";":{"ha":407,"x_min":68,"x_max":339,"o":"m 136 475 l 136 678 l 339 678 l 339 475 l 136 475 m 339 136 l 271 -68 l 68 -68 l 136 136 l 339 136 z "},"<":{"ha":678,"x_min":68,"x_max":610,"o":"m 68 407 l 68 543 l 610 814 l 610 610 l 305 475 l 610 339 l 610 136 l 68 407 z "},"=":{"ha":543,"x_min":68,"x_max":475,"o":"m 475 746 l 475 543 l 68 543 l 68 746 l 475 746 m 475 407 l 475 203 l 68 203 l 68 407 l 475 407 z "},">":{"ha":678,"x_min":68,"x_max":610,"o":"m 68 136 l 68 339 l 373 475 l 68 610 l 68 814 l 610 543 l 610 407 l 68 136 z "},"?":{"ha":746,"x_min":68,"x_max":678,"o":"m 203 271 l 203 543 l 407 543 q 475 610 475 543 l 475 678 q 407 746 475 746 l 68 746 l 68 949 l 407 949 q 678 678 678 949 l 678 610 q 407 339 678 339 l 407 271 l 203 271 m 407 203 l 407 0 l 203 0 l 203 203 l 407 203 z "},"@":{"ha":1017,"x_min":68,"x_max":949,"o":"m 780 203 q 618 281 643 203 q 475 203 576 203 q 271 407 271 203 l 271 543 q 475 746 271 746 q 610 678 576 746 l 610 746 l 746 746 l 746 407 q 780 339 746 339 q 814 407 814 339 l 814 610 q 610 814 814 814 l 407 814 q 203 610 203 814 l 203 339 q 407 136 203 136 l 814 136 l 814 0 l 407 0 q 68 339 68 0 l 68 610 q 407 949 68 949 l 610 949 q 949 610 949 949 l 949 407 q 780 203 949 203 m 475 339 q 610 407 576 339 l 610 543 q 475 610 576 610 q 407 543 407 610 l 407 407 q 475 339 407 339 z "},"A":{"ha":882,"x_min":0,"x_max":882,"o":"m 882 0 l 678 0 l 615 203 l 267 203 l 203 0 l 0 0 l 285 949 l 597 949 l 882 0 m 328 407 l 553 407 l 441 746 l 328 407 z "},"B":{"ha":814,"x_min":68,"x_max":746,"o":"m 475 949 q 746 678 746 949 q 631 475 746 495 q 746 271 746 454 q 475 0 746 0 l 68 0 l 68 949 l 475 949 m 271 746 l 271 576 l 475 576 q 543 644 543 576 l 543 678 q 475 746 543 746 l 271 746 m 271 373 l 271 203 l 475 203 q 543 271 543 203 l 543 305 q 475 373 543 373 l 271 373 z "},"C":{"ha":746,"x_min":68,"x_max":678,"o":"m 271 271 q 339 203 271 203 l 678 203 l 678 0 l 339 0 q 68 271 68 0 l 68 678 q 339 949 68 949 l 678 949 l 678 746 l 339 746 q 271 678 271 746 l 271 271 z "},"D":{"ha":814,"x_min":68,"x_max":746,"o":"m 475 949 q 746 678 746 949 l 746 271 q 475 0 746 0 l 68 0 l 68 949 l 475 949 m 543 678 q 475 746 543 746 l 271 746 l 271 203 l 475 203 q 543 271 543 203 l 543 678 z "},"E":{"ha":746,"x_min":68,"x_max":678,"o":"m 678 576 l 678 373 l 271 373 l 271 203 l 678 203 l 678 0 l 68 0 l 68 949 l 678 949 l 678 746 l 271 746 l 271 576 l 678 576 z "},"F":{"ha":746,"x_min":68,"x_max":678,"o":"m 678 576 l 678 373 l 271 373 l 271 0 l 68 0 l 68 949 l 678 949 l 678 746 l 271 746 l 271 576 l 678 576 z "},"G":{"ha":814,"x_min":68,"x_max":746,"o":"m 271 271 q 339 203 271 203 l 475 203 q 543 271 543 203 l 543 373 l 407 373 l 407 576 l 746 576 l 746 271 q 475 0 746 0 l 339 0 q 68 271 68 0 l 68 678 q 339 949 68 949 l 746 949 l 746 746 l 339 746 q 271 678 271 746 l 271 271 z "},"H":{"ha":814,"x_min":68,"x_max":746,"o":"m 271 949 l 271 576 l 543 576 l 543 949 l 746 949 l 746 0 l 543 0 l 543 373 l 271 373 l 271 0 l 68 0 l 68 949 l 271 949 z "},"I":{"ha":339,"x_min":68,"x_max":271,"o":"m 271 949 l 271 0 l 68 0 l 68 949 l 271 949 z "},"J":{"ha":543,"x_min":68,"x_max":475,"o":"m 271 949 l 475 949 l 475 271 q 203 0 475 0 l 68 0 l 68 203 l 203 203 q 271 271 271 203 l 271 949 z "},"K":{"ha":780,"x_min":68,"x_max":746,"o":"m 68 0 l 68 949 l 271 949 l 271 509 l 529 949 l 746 949 l 461 475 l 746 0 l 529 0 l 271 441 l 271 0 l 68 0 z "},"L":{"ha":746,"x_min":68,"x_max":678,"o":"m 271 203 l 678 203 l 678 0 l 68 0 l 68 949 l 271 949 l 271 203 z "},"M":{"ha":1153,"x_min":68,"x_max":1085,"o":"m 68 949 l 353 949 l 576 373 l 800 949 l 1085 949 l 1085 0 l 882 0 l 882 576 l 665 0 l 488 0 l 271 576 l 271 0 l 68 0 l 68 949 z "},"N":{"ha":882,"x_min":68,"x_max":814,"o":"m 271 949 l 610 373 l 610 949 l 814 949 l 814 0 l 610 0 l 271 576 l 271 0 l 68 0 l 68 949 l 271 949 z "},"O":{"ha":848,"x_min":68,"x_max":780,"o":"m 780 271 q 509 0 780 0 l 339 0 q 68 271 68 0 l 68 678 q 339 949 68 949 l 509 949 q 780 678 780 949 l 780 271 m 271 271 q 339 203 271 203 l 509 203 q 576 271 576 203 l 576 678 q 509 746 576 746 l 339 746 q 271 678 271 746 l 271 271 z "},"P":{"ha":814,"x_min":68,"x_max":746,"o":"m 271 339 l 271 0 l 68 0 l 68 949 l 475 949 q 746 678 746 949 l 746 610 q 475 339 746 339 l 271 339 m 271 746 l 271 543 l 475 543 q 543 610 543 543 l 543 678 q 475 746 543 746 l 271 746 z "},"Q":{"ha":848,"x_min":68,"x_max":780,"o":"m 468 0 l 339 0 q 68 271 68 0 l 68 678 q 339 949 68 949 l 509 949 q 780 678 780 949 l 780 271 q 610 0 780 68 l 658 -136 l 522 -136 l 468 0 m 481 339 l 529 203 q 576 271 576 217 l 576 678 q 509 746 576 746 l 339 746 q 271 678 271 746 l 271 271 q 339 203 271 203 l 393 203 l 346 339 l 481 339 z "},"R":{"ha":814,"x_min":68,"x_max":746,"o":"m 407 339 l 271 339 l 271 0 l 68 0 l 68 949 l 475 949 q 746 678 746 949 l 746 610 q 621 376 746 444 l 746 0 l 543 0 l 407 339 m 271 746 l 271 543 l 475 543 q 543 610 543 543 l 543 678 q 475 746 543 746 l 271 746 z "},"S":{"ha":814,"x_min":68,"x_max":746,"o":"m 68 0 l 68 203 l 475 203 q 543 271 543 203 l 543 305 q 475 373 543 373 l 339 373 q 68 644 68 373 l 68 678 q 339 949 68 949 l 746 949 l 746 746 l 339 746 q 271 678 271 746 l 271 644 q 339 576 271 576 l 475 576 q 746 305 746 576 l 746 271 q 475 0 746 0 l 68 0 z "},"T":{"ha":814,"x_min":68,"x_max":746,"o":"m 746 949 l 746 746 l 509 746 l 509 0 l 305 0 l 305 746 l 68 746 l 68 949 l 746 949 z "},"U":{"ha":814,"x_min":68,"x_max":746,"o":"m 271 949 l 271 271 q 339 203 271 203 l 475 203 q 543 271 543 203 l 543 949 l 746 949 l 746 271 q 475 0 746 0 l 339 0 q 68 271 68 0 l 68 949 l 271 949 z "},"V":{"ha":814,"x_min":0,"x_max":814,"o":"m 610 949 l 814 949 l 563 0 l 251 0 l 0 949 l 203 949 l 407 203 l 610 949 z "},"W":{"ha":1221,"x_min":0,"x_max":1221,"o":"m 1038 0 l 726 0 l 610 597 l 495 0 l 183 0 l 0 949 l 203 949 l 339 271 l 475 949 l 746 949 l 882 271 l 1017 949 l 1221 949 l 1038 0 z "},"X":{"ha":949,"x_min":68,"x_max":882,"o":"m 68 0 l 315 475 l 68 949 l 292 949 l 475 613 l 658 949 l 882 949 l 634 475 l 882 0 l 658 0 l 475 336 l 292 0 l 68 0 z "},"Y":{"ha":814,"x_min":0,"x_max":814,"o":"m 210 949 l 407 610 l 604 949 l 814 949 l 509 407 l 509 0 l 305 0 l 305 407 l 0 949 l 210 949 z "},"Z":{"ha":814,"x_min":68,"x_max":746,"o":"m 746 949 l 746 746 l 319 203 l 746 203 l 746 0 l 68 0 l 68 203 l 495 746 l 68 746 l 68 949 l 746 949 z "},"[":{"ha":475,"x_min":68,"x_max":407,"o":"m 407 882 l 271 882 l 271 68 l 407 68 l 407 -136 l 68 -136 l 68 1085 l 407 1085 l 407 882 z "},"\\":{"ha":692,"x_min":68,"x_max":624,"o":"m 68 1085 l 271 1085 l 624 -136 l 420 -136 l 68 1085 z "},"]":{"ha":475,"x_min":68,"x_max":407,"o":"m 68 1085 l 407 1085 l 407 -136 l 68 -136 l 68 68 l 203 68 l 203 882 l 68 882 l 68 1085 z "},"^":{"ha":814,"x_min":68,"x_max":746,"o":"m 305 949 l 509 949 l 746 475 l 543 475 l 407 780 l 271 475 l 68 475 l 305 949 z "},"_":{"ha":543,"x_min":0,"x_max":543,"o":"m 543 -136 l 543 -271 l 0 -271 l 0 -136 l 543 -136 z "},"`":{"ha":407,"x_min":68,"x_max":339,"o":"m 129 746 l 68 949 l 278 949 l 339 746 l 129 746 z "},"a":{"ha":746,"x_min":68,"x_max":678,"o":"m 339 488 l 136 488 l 136 678 l 339 678 q 678 366 678 678 l 678 0 l 495 0 l 475 54 q 339 0 441 0 l 271 0 q 68 210 68 0 q 271 420 68 420 l 339 420 q 475 366 441 420 q 339 488 475 488 m 339 163 q 475 197 441 163 l 475 237 q 339 271 441 271 q 271 217 271 271 q 339 163 271 163 z "},"b":{"ha":746,"x_min":68,"x_max":678,"o":"m 271 624 q 407 678 305 678 q 678 407 678 678 l 678 271 q 407 0 678 0 q 271 54 305 0 l 251 0 l 68 0 l 68 949 l 271 949 l 271 624 m 407 203 q 475 271 475 203 l 475 407 q 407 475 475 475 q 271 441 305 475 l 271 237 q 407 203 305 203 z "},"c":{"ha":678,"x_min":68,"x_max":610,"o":"m 271 271 q 339 203 271 203 l 610 203 l 610 0 l 339 0 q 68 271 68 0 l 68 407 q 339 678 68 678 l 610 678 l 610 475 l 339 475 q 271 407 271 475 l 271 271 z "},"d":{"ha":746,"x_min":68,"x_max":678,"o":"m 475 949 l 678 949 l 678 0 l 495 0 l 475 54 q 339 0 441 0 q 68 271 68 0 l 68 407 q 339 678 68 678 q 475 624 441 678 l 475 949 m 339 203 q 475 237 441 203 l 475 441 q 339 475 441 475 q 271 407 271 475 l 271 271 q 339 203 271 203 z "},"e":{"ha":746,"x_min":68,"x_max":678,"o":"m 271 258 l 271 237 q 339 170 271 170 l 644 170 l 644 0 l 339 0 q 68 271 68 0 l 68 407 q 339 678 68 678 l 407 678 q 678 407 678 678 l 678 258 l 271 258 m 271 434 l 271 407 l 475 407 l 475 434 q 407 502 475 502 l 339 502 q 271 434 271 502 z "},"f":{"ha":610,"x_min":68,"x_max":543,"o":"m 373 678 l 543 678 l 543 475 l 373 475 l 373 0 l 170 0 l 170 475 l 68 475 l 68 678 l 170 678 q 441 949 170 949 l 543 949 l 543 746 l 441 746 q 373 678 373 746 z "},"g":{"ha":746,"x_min":68,"x_max":678,"o":"m 475 54 q 339 0 434 0 q 68 271 68 0 l 68 407 q 339 678 68 678 q 475 624 434 678 l 495 678 l 678 678 l 678 68 q 339 -271 678 -271 l 136 -271 l 136 -68 l 339 -68 q 475 68 475 -68 l 475 54 m 339 475 q 271 407 271 475 l 271 271 q 339 203 271 203 q 475 237 434 203 l 475 441 q 339 475 434 475 z "},"h":{"ha":746,"x_min":68,"x_max":678,"o":"m 271 0 l 68 0 l 68 949 l 271 949 l 271 624 q 407 678 305 678 q 678 407 678 678 l 678 0 l 475 0 l 475 407 q 407 475 475 475 q 271 441 305 475 l 271 0 z "},"i":{"ha":339,"x_min":68,"x_max":271,"o":"m 271 678 l 271 0 l 68 0 l 68 678 l 271 678 m 271 949 l 271 746 l 68 746 l 68 949 l 271 949 z "},"j":{"ha":339,"x_min":-68,"x_max":271,"o":"m -68 -271 l -68 -68 l 0 -68 q 68 0 68 -68 l 68 678 l 271 678 l 271 0 q 0 -271 271 -271 l -68 -271 m 271 949 l 271 746 l 68 746 l 68 949 l 271 949 z "},"k":{"ha":746,"x_min":68,"x_max":678,"o":"m 271 949 l 271 373 l 454 678 l 678 678 l 468 339 l 678 0 l 454 0 l 271 305 l 271 0 l 68 0 l 68 949 l 271 949 z "},"l":{"ha":339,"x_min":68,"x_max":271,"o":"m 271 949 l 271 0 l 68 0 l 68 949 l 271 949 z "},"m":{"ha":1153,"x_min":68,"x_max":1085,"o":"m 251 678 l 271 610 q 407 678 305 678 q 581 590 524 678 q 814 678 661 678 q 1085 441 1085 678 l 1085 0 l 882 0 l 882 407 q 780 475 882 475 q 678 407 678 475 l 678 0 l 475 0 l 475 414 q 387 475 475 475 q 271 407 305 475 l 271 0 l 68 0 l 68 678 l 251 678 z "},"n":{"ha":746,"x_min":68,"x_max":678,"o":"m 271 0 l 68 0 l 68 678 l 251 678 l 271 624 q 407 678 305 678 q 678 407 678 678 l 678 0 l 475 0 l 475 407 q 407 475 475 475 q 271 441 305 475 l 271 0 z "},"o":{"ha":746,"x_min":68,"x_max":678,"o":"m 678 271 q 407 0 678 0 l 339 0 q 68 271 68 0 l 68 407 q 339 678 68 678 l 407 678 q 678 407 678 678 l 678 271 m 271 271 q 339 203 271 203 l 407 203 q 475 271 475 203 l 475 407 q 407 468 475 468 l 339 468 q 271 407 271 468 l 271 271 z "},"p":{"ha":746,"x_min":68,"x_max":678,"o":"m 271 -271 l 68 -271 l 68 678 l 251 678 l 271 624 q 407 678 305 678 q 678 407 678 678 l 678 271 q 407 0 678 0 q 271 54 305 0 l 271 -271 m 407 475 q 271 441 305 475 l 271 237 q 407 203 305 203 q 475 271 475 203 l 475 407 q 407 475 475 475 z "},"q":{"ha":746,"x_min":68,"x_max":678,"o":"m 475 54 q 339 0 441 0 q 68 271 68 0 l 68 407 q 339 678 68 678 q 475 624 441 678 l 495 678 l 678 678 l 678 -271 l 475 -271 l 475 54 m 339 475 q 271 407 271 475 l 271 271 q 339 203 271 203 q 475 237 441 203 l 475 441 q 339 475 441 475 z "},"r":{"ha":509,"x_min":68,"x_max":475,"o":"m 271 0 l 68 0 l 68 678 l 251 678 l 271 624 q 407 678 305 678 l 475 678 l 475 475 l 407 475 q 271 441 305 475 l 271 0 z "},"s":{"ha":712,"x_min":68,"x_max":644,"o":"m 68 0 l 68 170 l 393 170 q 441 210 441 170 q 393 258 441 258 l 271 258 q 68 441 68 258 l 68 495 q 271 678 68 678 l 610 678 l 610 509 l 319 509 q 271 468 271 509 q 319 434 271 434 l 441 434 q 644 237 644 434 l 644 183 q 441 0 644 0 l 68 0 z "},"t":{"ha":610,"x_min":68,"x_max":543,"o":"m 373 271 q 441 203 373 203 l 543 203 l 543 0 l 441 0 q 170 271 170 0 l 170 475 l 68 475 l 68 678 l 170 678 l 170 882 l 373 949 l 373 678 l 543 678 l 543 475 l 373 475 l 373 271 z "},"u":{"ha":746,"x_min":68,"x_max":678,"o":"m 475 678 l 678 678 l 678 0 l 495 0 l 475 54 q 339 0 441 0 q 68 271 68 0 l 68 678 l 271 678 l 271 271 q 339 203 271 203 q 475 237 441 203 l 475 678 z "},"v":{"ha":746,"x_min":34,"x_max":712,"o":"m 522 0 l 224 0 l 34 678 l 237 678 l 373 170 l 509 678 l 712 678 l 522 0 z "},"w":{"ha":1017,"x_min":34,"x_max":983,"o":"m 705 210 l 780 678 l 983 678 l 827 0 l 590 0 l 509 429 l 427 0 l 190 0 l 34 678 l 237 678 l 312 217 l 393 678 l 624 678 l 705 210 z "},"x":{"ha":814,"x_min":68,"x_max":746,"o":"m 285 678 l 407 433 l 529 678 l 746 678 l 570 339 l 746 0 l 529 0 l 407 245 l 285 0 l 68 0 l 244 339 l 68 678 l 285 678 z "},"y":{"ha":746,"x_min":68,"x_max":678,"o":"m 475 678 l 678 678 l 678 0 q 407 -271 678 -271 l 136 -271 l 136 -68 l 339 -68 q 475 0 475 -68 l 475 54 q 339 0 434 0 q 68 271 68 0 l 68 678 l 271 678 l 271 271 q 339 203 271 203 q 475 237 434 203 l 475 678 z "},"z":{"ha":678,"x_min":68,"x_max":610,"o":"m 610 678 l 610 475 l 326 203 l 610 203 l 610 0 l 68 0 l 68 203 l 353 475 l 68 475 l 68 678 l 610 678 z "},"{":{"ha":610,"x_min":68,"x_max":543,"o":"m 68 576 q 203 678 203 576 l 203 746 q 543 1085 203 1085 l 543 882 q 407 746 407 882 l 407 644 q 271 475 407 495 q 407 305 407 454 l 407 203 q 543 68 407 68 l 543 -136 q 203 203 203 -136 l 203 271 q 68 373 203 373 l 68 576 z "},"|":{"ha":339,"x_min":68,"x_max":271,"o":"m 271 1085 l 271 -136 l 68 -136 l 68 1085 l 271 1085 z "},"}":{"ha":610,"x_min":68,"x_max":543,"o":"m 543 373 q 407 271 407 373 l 407 203 q 68 -136 407 -136 l 68 68 q 203 203 203 68 l 203 305 q 339 475 203 454 q 203 644 203 495 l 203 746 q 68 882 203 882 l 68 1085 q 407 746 407 1085 l 407 678 q 543 576 407 576 l 543 373 z "},"~":{"ha":814,"x_min":68,"x_max":746,"o":"m 68 339 q 271 610 68 610 q 420 543 359 610 q 549 475 481 475 q 610 610 610 475 l 746 610 q 543 339 746 339 q 393 404 454 339 q 264 468 332 468 q 203 339 203 468 l 68 339 z "}," ":{"ha":271,"x_min":0,"x_max":0,"o":""},"¡":{"ha":339,"x_min":68,"x_max":271,"o":"m 271 407 l 271 -271 l 68 -271 l 68 407 l 271 407 m 271 678 l 271 475 l 68 475 l 68 678 l 271 678 z "},"¢":{"ha":678,"x_min":68,"x_max":610,"o":"m 441 949 l 441 814 l 610 814 l 610 610 l 441 610 l 441 339 l 610 339 l 610 136 l 441 136 l 441 0 l 373 0 l 373 136 l 339 136 q 68 407 68 136 l 68 543 q 339 814 68 814 l 373 814 l 373 949 l 441 949 m 271 407 q 339 339 271 339 l 373 339 l 373 610 l 339 610 q 271 543 271 610 l 271 407 z "},"£":{"ha":746,"x_min":68,"x_max":678,"o":"m 373 576 l 678 576 l 678 373 l 373 373 l 373 203 l 678 203 l 678 0 l 68 0 l 68 203 l 170 203 l 170 373 l 68 373 l 68 576 l 170 576 l 170 678 q 441 949 170 949 l 678 949 l 678 746 l 441 746 q 373 678 373 746 l 373 576 z "},"¥":{"ha":814,"x_min":0,"x_max":814,"o":"m 210 949 l 407 610 l 604 949 l 814 949 l 547 475 l 712 475 l 712 339 l 509 339 l 509 237 l 712 237 l 712 102 l 509 102 l 509 0 l 305 0 l 305 102 l 102 102 l 102 237 l 305 237 l 305 339 l 102 339 l 102 475 l 267 475 l 0 949 l 210 949 z "},"¦":{"ha":339,"x_min":68,"x_max":271,"o":"m 271 1085 l 271 543 l 68 543 l 68 1085 l 271 1085 m 271 407 l 271 -136 l 68 -136 l 68 407 l 271 407 z "},"¨":{"ha":678,"x_min":68,"x_max":610,"o":"m 68 746 l 68 949 l 271 949 l 271 746 l 68 746 m 407 746 l 407 949 l 610 949 l 610 746 l 407 746 z "},"©":{"ha":946,"x_min":68,"x_max":878,"o":"m 878 473 q 760 186 878 305 q 473 68 641 68 q 186 186 305 68 q 68 473 68 305 q 186 760 68 641 q 473 878 305 878 q 760 760 641 878 q 878 473 878 641 m 473 783 q 254 692 345 783 q 163 473 163 602 q 254 254 163 345 q 473 163 345 163 q 692 254 602 163 q 783 473 783 345 q 692 692 783 602 q 473 783 602 783 m 583 520 q 557 557 575 541 q 473 593 523 593 q 389 558 424 593 q 354 473 354 523 q 389 389 354 424 q 473 354 424 354 q 557 389 523 354 q 585 430 576 408 l 684 430 q 625 321 671 368 q 473 258 562 258 q 321 321 385 258 q 258 473 258 385 q 321 625 258 562 q 473 688 385 688 q 625 625 562 688 q 683 520 671 579 l 583 520 z "},"«":{"ha":901,"x_min":68,"x_max":833,"o":"m 68 441 l 258 746 l 475 746 l 285 441 l 475 136 l 258 136 l 68 441 m 426 441 l 616 746 l 833 746 l 643 441 l 833 136 l 616 136 l 426 441 z "},"¬":{"ha":678,"x_min":68,"x_max":610,"o":"m 610 576 l 610 203 l 407 203 l 407 373 l 68 373 l 68 576 l 610 576 z "},"®":{"ha":946,"x_min":68,"x_max":878,"o":"m 878 470 q 760 183 878 302 q 473 64 641 64 q 186 183 305 64 q 68 470 68 302 q 186 756 68 637 q 473 875 305 875 q 760 756 641 875 q 878 470 878 637 m 473 780 q 254 689 345 780 q 163 470 163 598 q 254 251 163 342 q 473 160 345 160 q 692 251 602 160 q 783 470 783 342 q 692 689 783 598 q 473 780 602 780 m 507 684 q 650 541 650 684 q 585 416 650 449 l 650 255 l 547 255 l 492 398 l 398 398 l 398 255 l 302 255 l 302 684 l 507 684 m 507 494 q 555 541 555 494 q 507 589 555 589 l 398 589 l 398 494 l 507 494 z "},"°":{"ha":420,"x_min":68,"x_max":353,"o":"m 353 814 q 311 713 353 755 q 210 671 269 671 q 110 713 151 671 q 68 814 68 755 q 110 915 68 873 q 210 956 151 956 q 311 915 269 956 q 353 814 353 873 m 210 875 q 167 857 185 875 q 149 814 149 839 q 167 771 149 789 q 210 753 185 753 q 253 771 235 753 q 271 814 271 789 q 253 857 271 839 q 210 875 235 875 z "},"±":{"ha":678,"x_min":68,"x_max":610,"o":"m 237 678 l 237 848 l 441 848 l 441 678 l 610 678 l 610 475 l 441 475 l 441 305 l 237 305 l 237 475 l 68 475 l 68 678 l 237 678 m 610 205 l 610 2 l 68 2 l 68 205 l 610 205 z "},"´":{"ha":407,"x_min":68,"x_max":339,"o":"m 68 746 l 129 949 l 339 949 l 278 746 l 68 746 z "},"µ":{"ha":814,"x_min":68,"x_max":746,"o":"m 271 678 l 271 271 q 407 203 305 203 q 543 271 509 203 l 543 678 l 746 678 l 746 0 l 543 0 l 543 68 q 407 0 509 0 q 271 57 305 0 l 271 -302 l 68 -302 l 68 678 l 271 678 z "},"¶":{"ha":1017,"x_min":68,"x_max":949,"o":"m 949 949 l 949 -271 l 746 -271 l 746 746 l 610 746 l 610 -271 l 407 -271 l 407 271 q 68 610 68 271 q 407 949 68 949 l 949 949 z "},"·":{"ha":339,"x_min":68,"x_max":271,"o":"m 68 373 l 68 576 l 271 576 l 271 373 l 68 373 z "},"¸":{"ha":407,"x_min":68,"x_max":339,"o":"m 136 -68 q 157 -67 147 -67 q 339 -156 339 -67 q 190 -292 339 -292 q 68 -271 122 -292 l 68 -183 q 190 -203 122 -203 q 251 -163 251 -203 q 136 -122 251 -122 l 136 -68 z "},"»":{"ha":901,"x_min":68,"x_max":833,"o":"m 285 136 l 68 136 l 258 441 l 68 746 l 285 746 l 475 441 l 285 136 m 643 136 l 426 136 l 616 441 l 426 746 l 643 746 l 833 441 l 643 136 z "},"¿":{"ha":746,"x_min":68,"x_max":678,"o":"m 543 407 l 543 136 l 339 136 q 271 68 271 136 l 271 0 q 339 -68 271 -68 l 678 -68 l 678 -271 l 339 -271 q 68 0 68 -271 l 68 68 q 339 339 68 339 l 339 407 l 543 407 m 339 475 l 339 678 l 543 678 l 543 475 l 339 475 z "},"À":{"ha":882,"x_min":0,"x_max":882,"o":"m 882 0 l 678 0 l 615 203 l 267 203 l 203 0 l 0 0 l 285 949 l 597 949 l 882 0 m 328 407 l 553 407 l 441 746 l 328 407 m 321 1017 l 260 1221 l 470 1221 l 531 1017 l 321 1017 z "},"Á":{"ha":882,"x_min":0,"x_max":882,"o":"m 882 0 l 678 0 l 615 203 l 267 203 l 203 0 l 0 0 l 285 949 l 597 949 l 882 0 m 328 407 l 553 407 l 441 746 l 328 407 m 351 1017 l 412 1221 l 622 1221 l 561 1017 l 351 1017 z "},"Â":{"ha":882,"x_min":0,"x_max":882,"o":"m 882 0 l 678 0 l 615 203 l 267 203 l 203 0 l 0 0 l 285 949 l 597 949 l 882 0 m 328 407 l 553 407 l 441 746 l 328 407 m 346 1221 l 536 1221 l 644 1017 l 509 1017 l 441 1153 l 373 1017 l 237 1017 l 346 1221 z "},"Ã":{"ha":882,"x_min":0,"x_max":882,"o":"m 882 0 l 678 0 l 615 203 l 267 203 l 203 0 l 0 0 l 285 949 l 597 949 l 882 0 m 328 407 l 553 407 l 441 746 l 328 407 m 190 1017 q 319 1187 190 1187 q 441 1160 387 1187 q 543 1133 495 1133 q 590 1187 590 1133 l 692 1187 q 563 1017 692 1017 q 441 1044 495 1017 q 339 1072 387 1072 q 292 1017 292 1072 l 190 1017 z "},"Ä":{"ha":882,"x_min":0,"x_max":882,"o":"m 882 0 l 678 0 l 615 203 l 267 203 l 203 0 l 0 0 l 285 949 l 597 949 l 882 0 m 328 407 l 553 407 l 441 746 l 328 407 m 170 1017 l 170 1221 l 373 1221 l 373 1017 l 170 1017 m 509 1017 l 509 1221 l 712 1221 l 712 1017 l 509 1017 z "},"Å":{"ha":882,"x_min":0,"x_max":882,"o":"m 882 0 l 678 0 l 615 203 l 267 203 l 203 0 l 0 0 l 285 949 l 597 949 l 882 0 m 328 407 l 553 407 l 441 746 l 328 407 m 583 1153 q 542 1052 583 1094 q 441 1010 500 1010 q 340 1052 382 1010 q 298 1153 298 1094 q 340 1254 298 1212 q 441 1295 382 1295 q 542 1254 500 1295 q 583 1153 583 1212 m 441 1214 q 398 1196 416 1214 q 380 1153 380 1178 q 398 1110 380 1128 q 441 1092 416 1092 q 484 1110 466 1092 q 502 1153 502 1128 q 484 1196 502 1178 q 441 1214 466 1214 z "},"Æ":{"ha":1153,"x_min":0,"x_max":1085,"o":"m 1085 576 l 1085 373 l 746 373 l 746 203 l 1085 203 l 1085 0 l 543 0 l 543 203 l 267 203 l 203 0 l 0 0 l 285 949 l 1085 949 l 1085 746 l 746 746 l 746 576 l 1085 576 m 543 746 l 441 746 l 335 407 l 543 407 l 543 746 z "},"Ç":{"ha":746,"x_min":68,"x_max":678,"o":"m 271 271 q 339 203 271 203 l 678 203 l 678 0 l 339 0 q 68 271 68 0 l 68 678 q 339 949 68 949 l 678 949 l 678 746 l 339 746 q 271 678 271 746 l 271 271 m 339 -68 q 361 -67 351 -67 q 543 -156 543 -67 q 393 -292 543 -292 q 271 -271 326 -292 l 271 -183 q 393 -203 326 -203 q 454 -163 454 -203 q 339 -122 454 -122 l 339 -68 z "},"È":{"ha":746,"x_min":68,"x_max":678,"o":"m 678 576 l 678 373 l 271 373 l 271 203 l 678 203 l 678 0 l 68 0 l 68 949 l 678 949 l 678 746 l 271 746 l 271 576 l 678 576 m 253 1017 l 192 1221 l 402 1221 l 463 1017 l 253 1017 z "},"É":{"ha":746,"x_min":68,"x_max":678,"o":"m 678 576 l 678 373 l 271 373 l 271 203 l 678 203 l 678 0 l 68 0 l 68 949 l 678 949 l 678 746 l 271 746 l 271 576 l 678 576 m 283 1017 l 344 1221 l 554 1221 l 493 1017 l 283 1017 z "},"Ê":{"ha":746,"x_min":68,"x_max":678,"o":"m 678 576 l 678 373 l 271 373 l 271 203 l 678 203 l 678 0 l 68 0 l 68 949 l 678 949 l 678 746 l 271 746 l 271 576 l 678 576 m 278 1221 l 468 1221 l 576 1017 l 441 1017 l 373 1153 l 305 1017 l 170 1017 l 278 1221 z "},"Ë":{"ha":746,"x_min":68,"x_max":678,"o":"m 678 576 l 678 373 l 271 373 l 271 203 l 678 203 l 678 0 l 68 0 l 68 949 l 678 949 l 678 746 l 271 746 l 271 576 l 678 576 m 102 1017 l 102 1221 l 305 1221 l 305 1017 l 102 1017 m 441 1017 l 441 1221 l 644 1221 l 644 1017 l 441 1017 z "},"Ì":{"ha":339,"x_min":-10,"x_max":271,"o":"m 271 949 l 271 0 l 68 0 l 68 949 l 271 949 m 51 1017 l -10 1221 l 200 1221 l 261 1017 l 51 1017 z "},"Í":{"ha":339,"x_min":68,"x_max":351,"o":"m 271 949 l 271 0 l 68 0 l 68 949 l 271 949 m 79 1017 l 140 1221 l 351 1221 l 290 1017 l 79 1017 z "},"Î":{"ha":339,"x_min":-33,"x_max":374,"o":"m 271 949 l 271 0 l 68 0 l 68 949 l 271 949 m 76 1221 l 266 1221 l 374 1017 l 239 1017 l 171 1153 l 103 1017 l -33 1017 l 76 1221 z "},"Ï":{"ha":339,"x_min":-100,"x_max":442,"o":"m 271 949 l 271 0 l 68 0 l 68 949 l 271 949 m -100 1017 l -100 1221 l 103 1221 l 103 1017 l -100 1017 m 239 1017 l 239 1221 l 442 1221 l 442 1017 l 239 1017 z "},"Ð":{"ha":814,"x_min":-68,"x_max":746,"o":"m 475 949 q 746 678 746 949 l 746 271 q 475 0 746 0 l 68 0 l 68 407 l -68 407 l -68 543 l 68 543 l 68 949 l 475 949 m 543 678 q 475 746 543 746 l 271 746 l 271 543 l 407 543 l 407 407 l 271 407 l 271 203 l 475 203 q 543 271 543 203 l 543 678 z "},"Ñ":{"ha":882,"x_min":68,"x_max":814,"o":"m 271 949 l 610 373 l 610 949 l 814 949 l 814 0 l 610 0 l 271 576 l 271 0 l 68 0 l 68 949 l 271 949 m 190 1017 q 319 1187 190 1187 q 441 1160 387 1187 q 543 1133 495 1133 q 590 1187 590 1133 l 692 1187 q 563 1017 692 1017 q 441 1044 495 1017 q 339 1072 387 1072 q 292 1017 292 1072 l 190 1017 z "},"Ò":{"ha":848,"x_min":68,"x_max":780,"o":"m 780 271 q 509 0 780 0 l 339 0 q 68 271 68 0 l 68 678 q 339 949 68 949 l 509 949 q 780 678 780 949 l 780 271 m 271 271 q 339 203 271 203 l 509 203 q 576 271 576 203 l 576 678 q 509 746 576 746 l 339 746 q 271 678 271 746 l 271 271 m 304 1017 l 243 1221 l 453 1221 l 514 1017 l 304 1017 z "},"Ó":{"ha":848,"x_min":68,"x_max":780,"o":"m 780 271 q 509 0 780 0 l 339 0 q 68 271 68 0 l 68 678 q 339 949 68 949 l 509 949 q 780 678 780 949 l 780 271 m 271 271 q 339 203 271 203 l 509 203 q 576 271 576 203 l 576 678 q 509 746 576 746 l 339 746 q 271 678 271 746 l 271 271 m 334 1017 l 395 1221 l 605 1221 l 544 1017 l 334 1017 z "},"Ô":{"ha":848,"x_min":68,"x_max":780,"o":"m 780 271 q 509 0 780 0 l 339 0 q 68 271 68 0 l 68 678 q 339 949 68 949 l 509 949 q 780 678 780 949 l 780 271 m 271 271 q 339 203 271 203 l 509 203 q 576 271 576 203 l 576 678 q 509 746 576 746 l 339 746 q 271 678 271 746 l 271 271 m 329 1221 l 519 1221 l 627 1017 l 492 1017 l 424 1153 l 356 1017 l 220 1017 l 329 1221 z "},"Õ":{"ha":848,"x_min":68,"x_max":780,"o":"m 780 271 q 509 0 780 0 l 339 0 q 68 271 68 0 l 68 678 q 339 949 68 949 l 509 949 q 780 678 780 949 l 780 271 m 271 271 q 339 203 271 203 l 509 203 q 576 271 576 203 l 576 678 q 509 746 576 746 l 339 746 q 271 678 271 746 l 271 271 m 173 1017 q 302 1187 173 1187 q 424 1160 370 1187 q 526 1133 478 1133 q 573 1187 573 1133 l 675 1187 q 546 1017 675 1017 q 424 1044 478 1017 q 322 1072 370 1072 q 275 1017 275 1072 l 173 1017 z "},"Ö":{"ha":848,"x_min":68,"x_max":780,"o":"m 780 271 q 509 0 780 0 l 339 0 q 68 271 68 0 l 68 678 q 339 949 68 949 l 509 949 q 780 678 780 949 l 780 271 m 271 271 q 339 203 271 203 l 509 203 q 576 271 576 203 l 576 678 q 509 746 576 746 l 339 746 q 271 678 271 746 l 271 271 m 153 1017 l 153 1221 l 356 1221 l 356 1017 l 153 1017 m 492 1017 l 492 1221 l 695 1221 l 695 1017 l 492 1017 z "},"×":{"ha":759,"x_min":68,"x_max":691,"o":"m 235 475 l 68 642 l 212 787 l 380 618 l 547 787 l 691 642 l 524 475 l 691 307 l 547 163 l 380 331 l 212 163 l 68 307 l 235 475 z "},"Ø":{"ha":848,"x_min":68,"x_max":780,"o":"m 780 203 q 576 0 780 0 l 338 0 l 298 -136 l 197 -136 l 236 1 q 68 203 68 18 l 68 746 q 271 949 68 949 l 510 949 l 549 1085 l 651 1085 l 611 947 q 780 746 780 931 l 780 203 m 271 271 q 297 213 271 229 l 451 746 l 339 746 q 271 678 271 746 l 271 271 m 550 736 l 396 203 l 509 203 q 576 271 576 203 l 576 678 l 550 736 z "},"Ù":{"ha":814,"x_min":68,"x_max":746,"o":"m 271 949 l 271 271 q 339 203 271 203 l 475 203 q 543 271 543 203 l 543 949 l 746 949 l 746 271 q 475 0 746 0 l 339 0 q 68 271 68 0 l 68 949 l 271 949 m 287 1017 l 226 1221 l 436 1221 l 497 1017 l 287 1017 z "},"Ú":{"ha":814,"x_min":68,"x_max":746,"o":"m 271 949 l 271 271 q 339 203 271 203 l 475 203 q 543 271 543 203 l 543 949 l 746 949 l 746 271 q 475 0 746 0 l 339 0 q 68 271 68 0 l 68 949 l 271 949 m 317 1017 l 378 1221 l 588 1221 l 527 1017 l 317 1017 z "},"Û":{"ha":814,"x_min":68,"x_max":746,"o":"m 271 949 l 271 271 q 339 203 271 203 l 475 203 q 543 271 543 203 l 543 949 l 746 949 l 746 271 q 475 0 746 0 l 339 0 q 68 271 68 0 l 68 949 l 271 949 m 312 1221 l 502 1221 l 610 1017 l 475 1017 l 407 1153 l 339 1017 l 203 1017 l 312 1221 z "},"Ü":{"ha":814,"x_min":68,"x_max":746,"o":"m 271 949 l 271 271 q 339 203 271 203 l 475 203 q 543 271 543 203 l 543 949 l 746 949 l 746 271 q 475 0 746 0 l 339 0 q 68 271 68 0 l 68 949 l 271 949 m 136 1017 l 136 1221 l 339 1221 l 339 1017 l 136 1017 m 475 1017 l 475 1221 l 678 1221 l 678 1017 l 475 1017 z "},"Ý":{"ha":814,"x_min":0,"x_max":814,"o":"m 210 949 l 407 610 l 604 949 l 814 949 l 509 407 l 509 0 l 305 0 l 305 407 l 0 949 l 210 949 m 317 1017 l 378 1221 l 588 1221 l 527 1017 l 317 1017 z "},"Þ":{"ha":814,"x_min":68,"x_max":746,"o":"m 475 149 l 271 149 l 271 0 l 68 0 l 68 949 l 271 949 l 271 793 l 475 793 q 746 522 746 793 l 746 420 q 475 149 746 149 m 271 590 l 271 353 l 475 353 q 543 420 543 353 l 543 522 q 475 590 543 590 l 271 590 z "},"ß":{"ha":814,"x_min":68,"x_max":746,"o":"m 475 203 q 543 271 543 203 l 543 305 q 475 373 543 373 l 339 373 l 339 576 l 475 576 q 543 644 543 576 l 543 678 q 475 746 543 746 l 339 746 q 271 678 271 746 l 271 0 l 68 0 l 68 678 q 339 949 68 949 l 475 949 q 746 678 746 949 q 631 475 746 495 q 746 271 746 454 q 475 0 746 0 l 339 0 l 339 203 l 475 203 z "},"à":{"ha":746,"x_min":68,"x_max":678,"o":"m 339 488 l 136 488 l 136 678 l 339 678 q 678 366 678 678 l 678 0 l 495 0 l 475 54 q 339 0 441 0 l 271 0 q 68 210 68 0 q 271 420 68 420 l 339 420 q 475 366 441 420 q 339 488 475 488 m 339 163 q 475 197 441 163 l 475 237 q 339 271 441 271 q 271 217 271 271 q 339 163 271 163 m 253 746 l 192 949 l 402 949 l 463 746 l 253 746 z "},"á":{"ha":746,"x_min":68,"x_max":678,"o":"m 339 488 l 136 488 l 136 678 l 339 678 q 678 366 678 678 l 678 0 l 495 0 l 475 54 q 339 0 441 0 l 271 0 q 68 210 68 0 q 271 420 68 420 l 339 420 q 475 366 441 420 q 339 488 475 488 m 339 163 q 475 197 441 163 l 475 237 q 339 271 441 271 q 271 217 271 271 q 339 163 271 163 m 283 746 l 344 949 l 554 949 l 493 746 l 283 746 z "},"â":{"ha":746,"x_min":68,"x_max":678,"o":"m 339 488 l 136 488 l 136 678 l 339 678 q 678 366 678 678 l 678 0 l 495 0 l 475 54 q 339 0 441 0 l 271 0 q 68 210 68 0 q 271 420 68 420 l 339 420 q 475 366 441 420 q 339 488 475 488 m 339 163 q 475 197 441 163 l 475 237 q 339 271 441 271 q 271 217 271 271 q 339 163 271 163 m 278 949 l 468 949 l 576 746 l 441 746 l 373 882 l 305 746 l 170 746 l 278 949 z "},"ã":{"ha":746,"x_min":68,"x_max":678,"o":"m 339 488 l 136 488 l 136 678 l 339 678 q 678 366 678 678 l 678 0 l 495 0 l 475 54 q 339 0 441 0 l 271 0 q 68 210 68 0 q 271 420 68 420 l 339 420 q 475 366 441 420 q 339 488 475 488 m 339 163 q 475 197 441 163 l 475 237 q 339 271 441 271 q 271 217 271 271 q 339 163 271 163 m 122 746 q 251 916 122 916 q 373 888 319 916 q 475 861 427 861 q 522 916 522 861 l 624 916 q 495 746 624 746 q 373 773 427 746 q 271 800 319 800 q 224 746 224 800 l 122 746 z "},"ä":{"ha":746,"x_min":68,"x_max":678,"o":"m 339 488 l 136 488 l 136 678 l 339 678 q 678 366 678 678 l 678 0 l 495 0 l 475 54 q 339 0 441 0 l 271 0 q 68 210 68 0 q 271 420 68 420 l 339 420 q 475 366 441 420 q 339 488 475 488 m 339 163 q 475 197 441 163 l 475 237 q 339 271 441 271 q 271 217 271 271 q 339 163 271 163 m 102 746 l 102 949 l 305 949 l 305 746 l 102 746 m 441 746 l 441 949 l 644 949 l 644 746 l 441 746 z "},"å":{"ha":746,"x_min":68,"x_max":678,"o":"m 339 488 l 136 488 l 136 678 l 339 678 q 678 366 678 678 l 678 0 l 495 0 l 475 54 q 339 0 441 0 l 271 0 q 68 210 68 0 q 271 420 68 420 l 339 420 q 475 366 441 420 q 339 488 475 488 m 339 163 q 475 197 441 163 l 475 237 q 339 271 441 271 q 271 217 271 271 q 339 163 271 163 m 515 882 q 474 781 515 823 q 373 739 432 739 q 272 781 314 739 q 231 882 231 823 q 272 982 231 941 q 373 1024 314 1024 q 474 982 432 1024 q 515 882 515 941 m 373 943 q 330 925 348 943 q 312 882 312 907 q 330 839 312 857 q 373 821 348 821 q 416 839 398 821 q 434 882 434 857 q 416 925 434 907 q 373 943 398 943 z "},"æ":{"ha":1122,"x_min":68,"x_max":1055,"o":"m 136 488 l 136 678 l 339 678 q 553 586 486 678 q 749 678 611 678 l 783 678 q 1055 407 1055 678 l 1055 258 l 682 258 l 682 237 q 749 170 682 170 l 1021 170 l 1021 0 l 749 0 q 561 81 619 0 q 339 0 470 0 l 271 0 q 68 210 68 0 q 271 420 68 420 l 339 420 q 475 366 441 420 q 339 488 475 488 l 136 488 m 339 163 q 475 197 441 163 l 475 237 q 339 271 441 271 q 271 217 271 271 q 339 163 271 163 m 682 407 l 851 407 l 851 434 q 783 502 851 502 l 749 502 q 682 434 682 502 l 682 407 z "},"ç":{"ha":678,"x_min":68,"x_max":610,"o":"m 271 271 q 339 203 271 203 l 610 203 l 610 0 l 339 0 q 68 271 68 0 l 68 407 q 339 678 68 678 l 610 678 l 610 475 l 339 475 q 271 407 271 475 l 271 271 m 339 -68 q 361 -67 351 -67 q 543 -156 543 -67 q 393 -292 543 -292 q 271 -271 326 -292 l 271 -183 q 393 -203 326 -203 q 454 -163 454 -203 q 339 -122 454 -122 l 339 -68 z "},"è":{"ha":746,"x_min":68,"x_max":678,"o":"m 271 258 l 271 237 q 339 170 271 170 l 644 170 l 644 0 l 339 0 q 68 271 68 0 l 68 407 q 339 678 68 678 l 407 678 q 678 407 678 678 l 678 258 l 271 258 m 271 434 l 271 407 l 475 407 l 475 434 q 407 502 475 502 l 339 502 q 271 434 271 502 m 253 746 l 192 949 l 402 949 l 463 746 l 253 746 z "},"é":{"ha":746,"x_min":68,"x_max":678,"o":"m 271 258 l 271 237 q 339 170 271 170 l 644 170 l 644 0 l 339 0 q 68 271 68 0 l 68 407 q 339 678 68 678 l 407 678 q 678 407 678 678 l 678 258 l 271 258 m 271 434 l 271 407 l 475 407 l 475 434 q 407 502 475 502 l 339 502 q 271 434 271 502 m 283 746 l 344 949 l 554 949 l 493 746 l 283 746 z "},"ê":{"ha":746,"x_min":68,"x_max":678,"o":"m 271 258 l 271 237 q 339 170 271 170 l 644 170 l 644 0 l 339 0 q 68 271 68 0 l 68 407 q 339 678 68 678 l 407 678 q 678 407 678 678 l 678 258 l 271 258 m 271 434 l 271 407 l 475 407 l 475 434 q 407 502 475 502 l 339 502 q 271 434 271 502 m 278 949 l 468 949 l 576 746 l 441 746 l 373 882 l 305 746 l 170 746 l 278 949 z "},"ë":{"ha":746,"x_min":68,"x_max":678,"o":"m 271 258 l 271 237 q 339 170 271 170 l 644 170 l 644 0 l 339 0 q 68 271 68 0 l 68 407 q 339 678 68 678 l 407 678 q 678 407 678 678 l 678 258 l 271 258 m 271 434 l 271 407 l 475 407 l 475 434 q 407 502 475 502 l 339 502 q 271 434 271 502 m 102 746 l 102 949 l 305 949 l 305 746 l 102 746 m 441 746 l 441 949 l 644 949 l 644 746 l 441 746 z "},"ì":{"ha":339,"x_min":-10,"x_max":271,"o":"m 271 678 l 271 0 l 68 0 l 68 678 l 271 678 m 51 746 l -10 949 l 200 949 l 261 746 l 51 746 z "},"í":{"ha":339,"x_min":68,"x_max":351,"o":"m 271 678 l 271 0 l 68 0 l 68 678 l 271 678 m 79 746 l 140 949 l 351 949 l 290 746 l 79 746 z "},"î":{"ha":339,"x_min":-33,"x_max":374,"o":"m 271 678 l 271 0 l 68 0 l 68 678 l 271 678 m 76 949 l 266 949 l 374 746 l 239 746 l 171 882 l 103 746 l -33 746 l 76 949 z "},"ï":{"ha":339,"x_min":-100,"x_max":442,"o":"m 271 678 l 271 0 l 68 0 l 68 678 l 271 678 m -100 746 l -100 949 l 103 949 l 103 746 l -100 746 m 239 746 l 239 949 l 442 949 l 442 746 l 239 746 z "},"ð":{"ha":746,"x_min":68,"x_max":814,"o":"m 475 746 l 339 746 l 339 882 l 475 882 l 475 949 l 678 949 l 678 882 l 814 882 l 814 746 l 678 746 l 678 0 l 495 0 l 475 54 q 339 0 441 0 q 68 271 68 0 l 68 407 q 339 678 68 678 q 475 624 441 678 l 475 746 m 339 203 q 475 237 441 203 l 475 441 q 339 475 441 475 q 271 407 271 475 l 271 271 q 339 203 271 203 z "},"ñ":{"ha":746,"x_min":68,"x_max":678,"o":"m 271 0 l 68 0 l 68 678 l 251 678 l 271 624 q 407 678 305 678 q 678 407 678 678 l 678 0 l 475 0 l 475 407 q 407 475 475 475 q 271 441 305 475 l 271 0 m 122 746 q 251 916 122 916 q 373 888 319 916 q 475 861 427 861 q 522 916 522 861 l 624 916 q 495 746 624 746 q 373 773 427 746 q 271 800 319 800 q 224 746 224 800 l 122 746 z "},"ò":{"ha":746,"x_min":68,"x_max":678,"o":"m 678 271 q 407 0 678 0 l 339 0 q 68 271 68 0 l 68 407 q 339 678 68 678 l 407 678 q 678 407 678 678 l 678 271 m 271 271 q 339 203 271 203 l 407 203 q 475 271 475 203 l 475 407 q 407 468 475 468 l 339 468 q 271 407 271 468 l 271 271 m 253 746 l 192 949 l 402 949 l 463 746 l 253 746 z "},"ó":{"ha":746,"x_min":68,"x_max":678,"o":"m 678 271 q 407 0 678 0 l 339 0 q 68 271 68 0 l 68 407 q 339 678 68 678 l 407 678 q 678 407 678 678 l 678 271 m 271 271 q 339 203 271 203 l 407 203 q 475 271 475 203 l 475 407 q 407 468 475 468 l 339 468 q 271 407 271 468 l 271 271 m 283 746 l 344 949 l 554 949 l 493 746 l 283 746 z "},"ô":{"ha":746,"x_min":68,"x_max":678,"o":"m 678 271 q 407 0 678 0 l 339 0 q 68 271 68 0 l 68 407 q 339 678 68 678 l 407 678 q 678 407 678 678 l 678 271 m 271 271 q 339 203 271 203 l 407 203 q 475 271 475 203 l 475 407 q 407 468 475 468 l 339 468 q 271 407 271 468 l 271 271 m 278 949 l 468 949 l 576 746 l 441 746 l 373 882 l 305 746 l 170 746 l 278 949 z "},"õ":{"ha":746,"x_min":68,"x_max":678,"o":"m 678 271 q 407 0 678 0 l 339 0 q 68 271 68 0 l 68 407 q 339 678 68 678 l 407 678 q 678 407 678 678 l 678 271 m 271 271 q 339 203 271 203 l 407 203 q 475 271 475 203 l 475 407 q 407 468 475 468 l 339 468 q 271 407 271 468 l 271 271 m 122 746 q 251 916 122 916 q 373 888 319 916 q 475 861 427 861 q 522 916 522 861 l 624 916 q 495 746 624 746 q 373 773 427 746 q 271 800 319 800 q 224 746 224 800 l 122 746 z "},"ö":{"ha":746,"x_min":68,"x_max":678,"o":"m 678 271 q 407 0 678 0 l 339 0 q 68 271 68 0 l 68 407 q 339 678 68 678 l 407 678 q 678 407 678 678 l 678 271 m 271 271 q 339 203 271 203 l 407 203 q 475 271 475 203 l 475 407 q 407 468 475 468 l 339 468 q 271 407 271 468 l 271 271 m 102 746 l 102 949 l 305 949 l 305 746 l 102 746 m 441 746 l 441 949 l 644 949 l 644 746 l 441 746 z "},"÷":{"ha":678,"x_min":68,"x_max":610,"o":"m 610 543 l 610 407 l 68 407 l 68 543 l 610 543 m 271 136 l 271 271 l 407 271 l 407 136 l 271 136 m 271 678 l 271 814 l 407 814 l 407 678 l 271 678 z "},"ø":{"ha":746,"x_min":68,"x_max":678,"o":"m 678 271 q 407 0 678 0 l 339 0 q 298 1 318 0 l 248 -136 l 146 -136 l 204 22 q 68 271 68 79 l 68 407 q 339 678 68 678 l 407 678 q 447 676 428 678 l 498 814 l 600 814 l 541 655 q 678 407 678 600 l 678 271 m 475 407 q 463 446 475 431 l 373 203 l 407 203 q 475 271 475 203 l 475 407 m 271 271 q 281 229 271 245 l 370 468 l 339 468 q 271 407 271 468 l 271 271 z "},"ù":{"ha":746,"x_min":68,"x_max":678,"o":"m 475 678 l 678 678 l 678 0 l 495 0 l 475 54 q 339 0 441 0 q 68 271 68 0 l 68 678 l 271 678 l 271 271 q 339 203 271 203 q 475 237 441 203 l 475 678 m 253 746 l 192 949 l 402 949 l 463 746 l 253 746 z "},"ú":{"ha":746,"x_min":68,"x_max":678,"o":"m 475 678 l 678 678 l 678 0 l 495 0 l 475 54 q 339 0 441 0 q 68 271 68 0 l 68 678 l 271 678 l 271 271 q 339 203 271 203 q 475 237 441 203 l 475 678 m 283 746 l 344 949 l 554 949 l 493 746 l 283 746 z "},"û":{"ha":746,"x_min":68,"x_max":678,"o":"m 475 678 l 678 678 l 678 0 l 495 0 l 475 54 q 339 0 441 0 q 68 271 68 0 l 68 678 l 271 678 l 271 271 q 339 203 271 203 q 475 237 441 203 l 475 678 m 278 949 l 468 949 l 576 746 l 441 746 l 373 882 l 305 746 l 170 746 l 278 949 z "},"ü":{"ha":746,"x_min":68,"x_max":678,"o":"m 475 678 l 678 678 l 678 0 l 495 0 l 475 54 q 339 0 441 0 q 68 271 68 0 l 68 678 l 271 678 l 271 271 q 339 203 271 203 q 475 237 441 203 l 475 678 m 102 746 l 102 949 l 305 949 l 305 746 l 102 746 m 441 746 l 441 949 l 644 949 l 644 746 l 441 746 z "},"ý":{"ha":746,"x_min":68,"x_max":678,"o":"m 475 678 l 678 678 l 678 0 q 407 -271 678 -271 l 136 -271 l 136 -68 l 339 -68 q 475 0 475 -68 l 475 54 q 339 0 434 0 q 68 271 68 0 l 68 678 l 271 678 l 271 271 q 339 203 271 203 q 475 237 434 203 l 475 678 m 283 746 l 344 949 l 554 949 l 493 746 l 283 746 z "},"þ":{"ha":746,"x_min":68,"x_max":678,"o":"m 271 -271 l 68 -271 l 68 949 l 271 949 l 271 624 q 407 678 305 678 q 678 407 678 678 l 678 271 q 407 0 678 0 q 271 54 305 0 l 271 -271 m 407 475 q 271 441 305 475 l 271 237 q 407 203 305 203 q 475 271 475 203 l 475 407 q 407 475 475 475 z "},"ÿ":{"ha":746,"x_min":68,"x_max":678,"o":"m 475 678 l 678 678 l 678 0 q 407 -271 678 -271 l 136 -271 l 136 -68 l 339 -68 q 475 0 475 -68 l 475 54 q 339 0 434 0 q 68 271 68 0 l 68 678 l 271 678 l 271 271 q 339 203 271 203 q 475 237 434 203 l 475 678 m 102 746 l 102 949 l 305 949 l 305 746 l 102 746 m 441 746 l 441 949 l 644 949 l 644 746 l 441 746 z "},"ı":{"ha":339,"x_min":68,"x_max":271,"o":"m 271 678 l 271 0 l 68 0 l 68 678 l 271 678 z "},"Œ":{"ha":1221,"x_min":68,"x_max":1153,"o":"m 1153 576 l 1153 373 l 780 373 l 780 203 l 1153 203 l 1153 0 l 576 0 l 576 62 q 441 0 534 0 l 339 0 q 68 271 68 0 l 68 678 q 339 949 68 949 l 441 949 q 576 887 534 949 l 576 949 l 1153 949 l 1153 746 l 780 746 l 780 576 l 1153 576 m 271 271 q 339 203 271 203 l 441 203 q 576 271 576 203 l 576 678 q 441 746 576 746 l 339 746 q 271 678 271 746 l 271 271 z "},"œ":{"ha":1153,"x_min":68,"x_max":1085,"o":"m 678 258 l 678 237 q 746 170 678 170 l 1051 170 l 1051 0 l 746 0 q 576 95 625 0 q 407 0 527 0 l 339 0 q 68 271 68 0 l 68 407 q 339 678 68 678 l 407 678 q 576 583 527 678 q 746 678 625 678 l 814 678 q 1085 407 1085 678 l 1085 258 l 678 258 m 271 271 q 339 203 271 203 l 407 203 q 475 271 475 203 l 475 407 q 407 468 475 468 l 339 468 q 271 407 271 468 l 271 271 m 678 407 l 882 407 l 882 441 q 814 509 882 509 l 746 509 q 678 441 678 509 l 678 407 z "},"Š":{"ha":814,"x_min":68,"x_max":746,"o":"m 68 0 l 68 203 l 475 203 q 543 271 543 203 l 543 305 q 475 373 543 373 l 339 373 q 68 644 68 373 l 68 678 q 339 949 68 949 l 746 949 l 746 746 l 339 746 q 271 678 271 746 l 271 644 q 339 576 271 576 l 475 576 q 746 305 746 576 l 746 271 q 475 0 746 0 l 68 0 m 203 1221 l 339 1221 l 407 1085 l 475 1221 l 610 1221 l 502 1017 l 312 1017 l 203 1221 z "},"š":{"ha":712,"x_min":68,"x_max":644,"o":"m 68 0 l 68 170 l 393 170 q 441 210 441 170 q 393 258 441 258 l 271 258 q 68 441 68 258 l 68 495 q 271 678 68 678 l 610 678 l 610 509 l 319 509 q 271 468 271 509 q 319 434 271 434 l 441 434 q 644 237 644 434 l 644 183 q 441 0 644 0 l 68 0 m 153 949 l 288 949 l 356 814 l 424 949 l 559 949 l 451 746 l 261 746 l 153 949 z "},"Ÿ":{"ha":814,"x_min":0,"x_max":814,"o":"m 210 949 l 407 610 l 604 949 l 814 949 l 509 407 l 509 0 l 305 0 l 305 407 l 0 949 l 210 949 m 136 1017 l 136 1221 l 339 1221 l 339 1017 l 136 1017 m 475 1017 l 475 1221 l 678 1221 l 678 1017 l 475 1017 z "},"Ž":{"ha":814,"x_min":68,"x_max":746,"o":"m 746 949 l 746 746 l 319 203 l 746 203 l 746 0 l 68 0 l 68 203 l 495 746 l 68 746 l 68 949 l 746 949 m 203 1221 l 339 1221 l 407 1085 l 475 1221 l 610 1221 l 502 1017 l 312 1017 l 203 1221 z "},"ž":{"ha":678,"x_min":68,"x_max":610,"o":"m 610 678 l 610 475 l 326 203 l 610 203 l 610 0 l 68 0 l 68 203 l 353 475 l 68 475 l 68 678 l 610 678 m 136 949 l 271 949 l 339 814 l 407 949 l 543 949 l 434 746 l 244 746 l 136 949 z "},"ƒ":{"ha":610,"x_min":34,"x_max":543,"o":"m 373 678 l 543 678 l 543 475 l 373 475 l 373 -7 q 102 -271 373 -271 l 34 -271 l 34 -68 l 102 -68 q 170 0 170 -68 l 170 475 l 68 475 l 68 678 l 170 678 q 441 949 170 949 l 543 949 l 543 746 l 441 746 q 373 678 373 746 z "},"ˆ":{"ha":543,"x_min":68,"x_max":475,"o":"m 176 949 l 366 949 l 475 746 l 339 746 l 271 882 l 203 746 l 68 746 l 176 949 z "},"ˇ":{"ha":543,"x_min":68,"x_max":475,"o":"m 68 949 l 203 949 l 271 814 l 339 949 l 475 949 l 366 746 l 176 746 l 68 949 z "},"˘":{"ha":543,"x_min":68,"x_max":475,"o":"m 68 949 l 190 949 q 271 868 190 868 q 353 949 353 868 l 475 949 q 271 746 475 746 q 68 949 68 746 z "},"˙":{"ha":339,"x_min":68,"x_max":271,"o":"m 68 746 l 68 949 l 271 949 l 271 746 l 68 746 z "},"˚":{"ha":420,"x_min":68,"x_max":353,"o":"m 353 882 q 311 781 353 823 q 210 739 269 739 q 110 781 151 739 q 68 882 68 823 q 110 982 68 941 q 210 1024 151 1024 q 311 982 269 1024 q 353 882 353 941 m 210 943 q 167 925 185 943 q 149 882 149 907 q 167 839 149 857 q 210 821 185 821 q 253 839 235 821 q 271 882 271 857 q 253 925 271 907 q 210 943 235 943 z "},"˛":{"ha":373,"x_min":68,"x_max":305,"o":"m 203 -68 q 170 -136 170 -109 q 203 -170 170 -170 q 305 -149 258 -170 l 305 -237 q 203 -258 258 -258 q 68 -156 68 -258 q 136 -68 68 -102 l 203 -68 z "},"˜":{"ha":637,"x_min":68,"x_max":570,"o":"m 68 746 q 197 916 68 916 q 319 888 264 916 q 420 861 373 861 q 468 916 468 861 l 570 916 q 441 746 570 746 q 319 773 373 746 q 217 800 264 800 q 170 746 170 800 l 68 746 z "},"˝":{"ha":678,"x_min":68,"x_max":610,"o":"m 68 746 l 129 949 l 339 949 l 278 746 l 68 746 m 339 746 l 400 949 l 610 949 l 549 746 l 339 746 z "},"–":{"ha":543,"x_min":68,"x_max":475,"o":"m 475 576 l 475 373 l 68 373 l 68 576 l 475 576 z "},"—":{"ha":678,"x_min":68,"x_max":610,"o":"m 610 576 l 610 373 l 68 373 l 68 576 l 610 576 z "},"‘":{"ha":407,"x_min":68,"x_max":339,"o":"m 271 949 l 339 746 l 136 746 l 68 949 l 271 949 z "},"’":{"ha":407,"x_min":68,"x_max":339,"o":"m 339 949 l 271 746 l 68 746 l 136 949 l 339 949 z "},"‚":{"ha":407,"x_min":68,"x_max":339,"o":"m 339 136 l 271 -68 l 68 -68 l 136 136 l 339 136 z "},"“":{"ha":678,"x_min":68,"x_max":610,"o":"m 543 949 l 610 746 l 407 746 l 339 949 l 543 949 m 271 949 l 339 746 l 136 746 l 68 949 l 271 949 z "},"”":{"ha":678,"x_min":68,"x_max":610,"o":"m 339 949 l 271 746 l 68 746 l 136 949 l 339 949 m 610 949 l 543 746 l 339 746 l 407 949 l 610 949 z "},"„":{"ha":678,"x_min":68,"x_max":610,"o":"m 339 136 l 271 -68 l 68 -68 l 136 136 l 339 136 m 610 136 l 543 -68 l 339 -68 l 407 136 l 610 136 z "},"†":{"ha":746,"x_min":68,"x_max":678,"o":"m 678 543 l 475 543 l 475 0 l 271 0 l 271 543 l 68 543 l 68 746 l 271 746 l 271 949 l 475 949 l 475 746 l 678 746 l 678 543 z "},"‡":{"ha":746,"x_min":68,"x_max":678,"o":"m 678 203 l 475 203 l 475 0 l 271 0 l 271 203 l 68 203 l 68 407 l 271 407 l 271 543 l 68 543 l 68 746 l 271 746 l 271 949 l 475 949 l 475 746 l 678 746 l 678 543 l 475 543 l 475 407 l 678 407 l 678 203 z "},"•":{"ha":339,"x_min":68,"x_max":271,"o":"m 271 610 l 271 407 l 68 407 l 68 610 l 271 610 z "},"…":{"ha":1017,"x_min":68,"x_max":949,"o":"m 68 0 l 68 203 l 271 203 l 271 0 l 68 0 m 407 0 l 407 203 l 610 203 l 610 0 l 407 0 m 746 0 l 746 203 l 949 203 l 949 0 l 746 0 z "},"‰":{"ha":1831,"x_min":68,"x_max":1763,"o":"m 271 407 q 68 610 68 407 l 68 746 q 271 949 68 949 l 339 949 q 543 746 543 949 l 543 610 q 339 407 543 407 l 271 407 m 254 624 q 309 570 254 570 q 356 624 356 570 l 356 732 q 309 787 356 787 q 254 732 254 787 l 254 624 m 339 0 l 739 949 l 949 949 l 549 0 l 339 0 m 949 0 q 746 203 746 0 l 746 339 q 949 543 746 543 l 1017 543 q 1221 339 1221 543 l 1221 203 q 1017 0 1221 0 l 949 0 m 932 217 q 987 163 932 163 q 1034 217 1034 163 l 1034 326 q 987 380 1034 380 q 932 326 932 380 l 932 217 m 1492 0 q 1289 203 1289 0 l 1289 339 q 1492 543 1289 543 l 1560 543 q 1763 339 1763 543 l 1763 203 q 1560 0 1763 0 l 1492 0 m 1475 217 q 1529 163 1475 163 q 1577 217 1577 163 l 1577 326 q 1529 380 1577 380 q 1475 326 1475 380 l 1475 217 z "},"‹":{"ha":543,"x_min":68,"x_max":475,"o":"m 68 441 l 258 746 l 475 746 l 285 441 l 475 136 l 258 136 l 68 441 z "},"›":{"ha":543,"x_min":68,"x_max":475,"o":"m 285 136 l 68 136 l 258 441 l 68 746 l 285 746 l 475 441 l 285 136 z "},"€":{"ha":814,"x_min":68,"x_max":746,"o":"m 373 526 l 373 424 l 637 424 l 613 288 l 373 288 l 373 271 q 441 203 373 203 l 746 203 l 746 0 l 441 0 q 170 271 170 0 l 170 288 l 68 288 l 68 424 l 170 424 l 170 526 l 68 526 l 68 661 l 170 661 q 441 949 177 949 l 746 949 l 746 746 l 441 746 q 373 661 378 746 l 695 661 l 671 526 l 373 526 z "},"™":{"ha":983,"x_min":68,"x_max":916,"o":"m 576 949 l 678 712 l 780 949 l 916 949 l 916 543 l 814 543 l 814 780 l 712 543 l 644 543 l 543 780 l 543 543 l 441 543 l 441 949 l 576 949 m 373 949 l 373 848 l 271 848 l 271 543 l 170 543 l 170 848 l 68 848 l 68 949 l 373 949 z "}}}
